<svg xmlns="http://www.w3.org/2000/svg" viewBox="0 0 380.204 291.178">
  <g transform="translate(-346.847 -178.245)">
    <path id="svg_9" d="M218.644,252.766l-8.764-3.429,7.06-17.531a3.035,3.035,0,0,0-1.736-3.961,3.108,3.108,0,0,0-4.019,1.711l-7.06,17.531-10.986-4.3,7.058-17.531a3.036,3.036,0,0,0-1.733-3.963,3.111,3.111,0,0,0-4.019,1.711l-7.06,17.531-8.76-3.426-3.634,9.023,4.84,1.9-5.711,14.182a6.631,6.631,0,0,0,3.789,8.643l3.661,1.434-1.974,4.9a4.419,4.419,0,0,0,2.526,5.761l2.094.819a4.523,4.523,0,0,0,5.844-2.488l1.974-4.9,4.183,1.635a6.79,6.79,0,0,0,8.771-3.733l5.707-14.182,4.318,1.689,3.631-9.023Z" transform="translate(224.398 533.706) rotate(-111.889)" fill="none" stroke="aqua" stroke-width="1.5"/>
    <path id="svg_12" d="M229.5,253.05s13,0,12.5-.05c.5.05,32.5-.95,18.5,53.05s62,32,33,33,71,32,31-74,71-111,63-58-5,114,63,74,59,48,55,74-1,41-1.5,40.95" transform="translate(190.5 4.959)" fill="none" stroke="aqua" stroke-width="1.5"/>
    <path id="svg_13" d="M526.04,427.859l-8.569-3.211,6.9-16.418a2.806,2.806,0,0,0-1.7-3.71,3.086,3.086,0,0,0-3.929,1.6l-6.9,16.418L501.1,418.515,508,402.1a2.807,2.807,0,0,0-1.695-3.712,3.088,3.088,0,0,0-3.929,1.6l-6.9,16.418-8.565-3.209-3.553,8.45,4.733,1.775L482.506,436.7a6.13,6.13,0,0,0,3.7,8.095l3.579,1.343-1.93,4.587a4.085,4.085,0,0,0,2.47,5.4l2.047.767a4.491,4.491,0,0,0,5.714-2.33l1.93-4.587,4.09,1.532a6.741,6.741,0,0,0,8.576-3.5l5.58-13.282,4.222,1.582,3.551-8.45Z" transform="matrix(-0.927, 0.375, -0.375, -0.927, 1322.292, 639.761)" fill="none" stroke="aqua" stroke-width="1.5"/>
  </g>
</svg>
